<svg width="180" height="180" viewBox="0 0 180 180" fill="none" xmlns="http://www.w3.org/2000/svg">
  <rect width="180" height="180" rx="36" fill="#ffffff"/>
  <ellipse cx="90" cy="143" rx="47" ry="8" fill="#d8edf7" opacity="0.7"/>
  <circle cx="90" cy="78" r="58" fill="#f8fdff" stroke="#12255f" stroke-width="8"/>
  <path d="M67 26C85 19 107 22 125 34C141 45 150 62 150 81C135 72 122 64 111 52C96 49 83 45 67 26Z" fill="#12255f"/>
  <path d="M39 97C36 82 38 66 47 51C55 39 66 30 79 26C68 42 58 58 51 76C55 84 61 91 72 102C59 103 49 102 39 97Z" fill="#12255f"/>
  <path d="M109 127C127 120 140 105 146 88C133 93 120 98 105 101C96 112 87 121 77 133C87 136 99 134 109 127Z" fill="#12255f"/>
  <path d="M46 51L81 67L115 44L138 60" stroke="#c6d8e2" stroke-width="2"/>
  <path d="M51 98L79 68L112 94L99 126" stroke="#c6d8e2" stroke-width="2"/>
  <path d="M115 44L112 94L139 108" stroke="#c6d8e2" stroke-width="2"/>
  <path d="M48 52L80 68L115 44L138 59" stroke="#20c7ee" stroke-width="5" stroke-linecap="round" stroke-linejoin="round"/>
  <path d="M51 98L80 68L112 94L99 126" stroke="#20c7ee" stroke-width="5" stroke-linecap="round" stroke-linejoin="round"/>
  <path d="M115 44L112 94L139 108" stroke="#62cfa1" stroke-width="4" stroke-linecap="round" stroke-linejoin="round"/>
  <circle cx="80" cy="68" r="11" fill="#74e6ff" stroke="#12bfe7" stroke-width="5"/>
  <circle cx="51" cy="98" r="10" fill="#74e6ff" stroke="#12bfe7" stroke-width="5"/>
  <circle cx="99" cy="126" r="9" fill="#74e6ff" stroke="#12bfe7" stroke-width="5"/>
  <circle cx="112" cy="94" r="11" fill="#a8ec55" stroke="#70bf37" stroke-width="5"/>
  <circle cx="138" cy="59" r="9" fill="#b8f05f" stroke="#7cc33f" stroke-width="5"/>
  <circle cx="48" cy="52" r="3" fill="#24d7ff"/>
  <circle cx="115" cy="44" r="3" fill="#24d7ff"/>
  <circle cx="139" cy="108" r="3" fill="#24d7ff"/>
  <circle cx="69" cy="121" r="3" fill="#24d7ff"/>
</svg>
